<svg width="41" height="41" viewBox="0 0 41 41" fill="none" xmlns="http://www.w3.org/2000/svg">
<rect width="41" height="41" fill="black"/>
<path fill-rule="evenodd" clip-rule="evenodd" d="M26.96 14.0399C27.5133 14.5932 27.5133 15.4901 26.96 16.0434L17.0434 25.9601C16.4901 26.5133 15.5931 26.5133 15.0399 25.9601C14.4866 25.4068 14.4866 24.5098 15.0399 23.9566L24.9566 14.0399C25.5098 13.4867 26.4068 13.4867 26.96 14.0399Z" fill="white"/>
<path fill-rule="evenodd" clip-rule="evenodd" d="M16.75 4.41669C17.5324 4.41669 18.1666 5.05095 18.1666 5.83335V8.66669C18.1666 9.44909 17.5324 10.0834 16.75 10.0834C15.9676 10.0834 15.3333 9.44909 15.3333 8.66669V5.83335C15.3333 5.05095 15.9676 4.41669 16.75 4.41669Z" fill="white"/>
<path fill-rule="evenodd" clip-rule="evenodd" d="M25.25 29.9167C26.0324 29.9167 26.6666 30.5509 26.6666 31.3334V34.1667C26.6666 34.9491 26.0324 35.5834 25.25 35.5834C24.4676 35.5834 23.8333 34.9491 23.8333 34.1667V31.3334C23.8333 30.5509 24.4676 29.9167 25.25 29.9167Z" fill="white"/>
<path fill-rule="evenodd" clip-rule="evenodd" d="M6.83329 14.3334H9.66663C10.449 14.3334 11.0833 14.9676 11.0833 15.75C11.0833 16.5324 10.449 17.1667 9.66663 17.1667H6.83329C6.05089 17.1667 5.41663 16.5324 5.41663 15.75C5.41663 14.9676 6.05089 14.3334 6.83329 14.3334Z" fill="white"/>
<path fill-rule="evenodd" clip-rule="evenodd" d="M30.9166 24.25C30.9166 23.4676 31.5509 22.8334 32.3333 22.8334H35.1666C35.949 22.8334 36.5833 23.4676 36.5833 24.25C36.5833 25.0324 35.949 25.6667 35.1666 25.6667H32.3333C31.5509 25.6667 30.9166 25.0324 30.9166 24.25Z" fill="white"/>
<path fill-rule="evenodd" clip-rule="evenodd" d="M7.95656 6.95662C8.5098 6.40338 9.40678 6.40338 9.96003 6.95662L11.9635 8.96009C12.5167 9.51333 12.5167 10.4103 11.9635 10.9636C11.4103 11.5168 10.5133 11.5168 9.96003 10.9636L7.95656 8.96009C7.40332 8.40685 7.40332 7.50986 7.95656 6.95662Z" fill="white"/>
<path fill-rule="evenodd" clip-rule="evenodd" d="M30.0365 29.0363C30.5897 28.4831 31.4867 28.4831 32.0399 29.0363L34.0434 31.0398C34.5966 31.5931 34.5966 32.49 34.0434 33.0433C33.4902 33.5965 32.5932 33.5965 32.0399 33.0433L30.0365 31.0398C29.4832 30.4866 29.4832 29.5896 30.0365 29.0363Z" fill="white"/>
<path fill-rule="evenodd" clip-rule="evenodd" d="M23.0035 7.97908C25.7697 5.21287 30.2546 5.21287 33.0208 7.97908C35.787 10.7453 35.787 15.2302 33.0208 17.9964L30.0156 21.0016C29.4624 21.5549 28.5654 21.5549 28.0122 21.0016C27.4589 20.4484 27.4589 19.5514 28.0122 18.9982L31.0174 15.993C32.6771 14.3332 32.6771 11.6423 31.0174 9.98255C29.3576 8.32282 26.6667 8.32282 25.0069 9.98255L22.0017 12.9878C21.4485 13.541 20.5515 13.541 19.9983 12.9878C19.445 12.4345 19.445 11.5375 19.9983 10.9843L23.0035 7.97908ZM13.9879 18.9982C14.5411 19.5514 14.5411 20.4484 13.9879 21.0016L10.9827 24.0068C9.32293 25.6666 9.32293 28.3575 10.9827 30.0172C12.6424 31.677 15.3333 31.677 16.9931 30.0172L19.9983 27.012C20.5515 26.4588 21.4485 26.4588 22.0017 27.012C22.555 27.5653 22.555 28.4623 22.0017 29.0155L18.9965 32.0207C16.2303 34.7869 11.7454 34.7869 8.97919 32.0207C6.21298 29.2545 6.21298 24.7696 8.97919 22.0034L11.9844 18.9982C12.5376 18.4449 13.4346 18.4449 13.9879 18.9982Z" fill="white"/>
</svg>
