<svg width="192" height="41" viewBox="0 0 192 41" fill="none" xmlns="http://www.w3.org/2000/svg">
<path fill-rule="evenodd" clip-rule="evenodd" d="M27.6871 13.3128C28.3543 13.98 28.3543 15.0616 27.6871 15.7288L15.7288 27.6871C15.0616 28.3543 13.98 28.3543 13.3128 27.6871C12.6457 27.02 12.6457 25.9383 13.3128 25.2712L25.2712 13.3128C25.9383 12.6457 27.02 12.6457 27.6871 13.3128Z" fill="white"/>
<path fill-rule="evenodd" clip-rule="evenodd" d="M15.375 1.70834C16.3185 1.70834 17.0833 2.47319 17.0833 3.41668V6.83334C17.0833 7.77683 16.3185 8.54168 15.375 8.54168C14.4315 8.54168 13.6666 7.77683 13.6666 6.83334V3.41668C13.6666 2.47319 14.4315 1.70834 15.375 1.70834Z" fill="white"/>
<path fill-rule="evenodd" clip-rule="evenodd" d="M25.625 32.4583C26.5685 32.4583 27.3333 33.2232 27.3333 34.1667V37.5833C27.3333 38.5268 26.5685 39.2917 25.625 39.2917C24.6815 39.2917 23.9166 38.5268 23.9166 37.5833V34.1667C23.9166 33.2232 24.6815 32.4583 25.625 32.4583Z" fill="white"/>
<path fill-rule="evenodd" clip-rule="evenodd" d="M3.41665 13.6667H6.83331C7.7768 13.6667 8.54165 14.4315 8.54165 15.375C8.54165 16.3185 7.7768 17.0833 6.83331 17.0833H3.41665C2.47316 17.0833 1.70831 16.3185 1.70831 15.375C1.70831 14.4315 2.47316 13.6667 3.41665 13.6667Z" fill="white"/>
<path fill-rule="evenodd" clip-rule="evenodd" d="M32.4583 25.625C32.4583 24.6815 33.2232 23.9167 34.1666 23.9167H37.5833C38.5268 23.9167 39.2916 24.6815 39.2916 25.625C39.2916 26.5685 38.5268 27.3333 37.5833 27.3333H34.1666C33.2232 27.3333 32.4583 26.5685 32.4583 25.625Z" fill="white"/>
<path fill-rule="evenodd" clip-rule="evenodd" d="M4.77117 4.7712C5.43832 4.10406 6.51997 4.10406 7.18712 4.7712L9.60307 7.18715C10.2702 7.8543 10.2702 8.93595 9.60307 9.6031C8.93592 10.2702 7.85427 10.2702 7.18712 9.6031L4.77117 7.18715C4.10403 6.52001 4.10403 5.43835 4.77117 4.7712Z" fill="white"/>
<path fill-rule="evenodd" clip-rule="evenodd" d="M31.3969 31.3968C32.0641 30.7296 33.1457 30.7296 33.8129 31.3968L36.2288 33.8127C36.896 34.4799 36.896 35.5615 36.2288 36.2287C35.5617 36.8958 34.48 36.8958 33.8129 36.2287L31.3969 33.8127C30.7298 33.1456 30.7298 32.0639 31.3969 31.3968Z" fill="white"/>
<path fill-rule="evenodd" clip-rule="evenodd" d="M22.916 6.00417C26.2517 2.66844 31.66 2.66844 34.9957 6.00417C38.3315 9.3399 38.3315 14.7482 34.9957 18.0839L31.3718 21.7078C30.7047 22.375 29.623 22.375 28.9559 21.7078C28.2887 21.0407 28.2887 19.959 28.9559 19.2919L32.5798 15.668C34.5812 13.6665 34.5812 10.4216 32.5798 8.42012C30.5783 6.41868 27.3334 6.41868 25.3319 8.42012L21.708 12.044C21.0409 12.7112 19.9592 12.7112 19.2921 12.044C18.6249 11.3769 18.6249 10.2952 19.2921 9.62809L22.916 6.00417ZM12.0442 19.2919C12.7114 19.959 12.7114 21.0407 12.0442 21.7078L8.4203 25.3318C6.41886 27.3332 6.41886 30.5782 8.4203 32.5796C10.4217 34.581 13.6667 34.581 15.6681 32.5796L19.2921 28.9557C19.9592 28.2885 21.0409 28.2885 21.708 28.9557C22.3752 29.6228 22.3752 30.7045 21.708 31.3716L18.0841 34.9955C14.7484 38.3313 9.34008 38.3313 6.00435 34.9955C2.66862 31.6598 2.66862 26.2515 6.00435 22.9158L9.62827 19.2919C10.2954 18.6247 11.3771 18.6247 12.0442 19.2919Z" fill="white"/>
<path d="M55.8125 9.04688H66.1406C68.1823 9.04688 69.8281 9.625 71.0781 10.7812C72.3281 11.9271 72.9531 13.5417 72.9531 15.625C72.9531 17.4167 72.3958 18.9792 71.2812 20.3125C70.1667 21.6354 68.4531 22.2969 66.1406 22.2969H58.9219V32H55.8125V9.04688ZM69.8125 15.6406C69.8125 13.9531 69.1875 12.8073 67.9375 12.2031C67.25 11.8802 66.3073 11.7188 65.1094 11.7188H58.9219V19.6719H65.1094C66.5052 19.6719 67.6354 19.375 68.5 18.7812C69.375 18.1875 69.8125 17.1406 69.8125 15.6406ZM83.4531 14.8906C84.6406 14.8906 85.7917 15.1719 86.9062 15.7344C88.0208 16.2865 88.8698 17.0052 89.4531 17.8906C90.0156 18.7344 90.3906 19.7188 90.5781 20.8438C90.7448 21.6146 90.8281 22.8438 90.8281 24.5312H78.5625C78.6146 26.2292 79.0156 27.5938 79.7656 28.625C80.5156 29.6458 81.6771 30.1562 83.25 30.1562C84.7188 30.1562 85.8906 29.6719 86.7656 28.7031C87.2656 28.1406 87.6198 27.4896 87.8281 26.75H90.5938C90.5208 27.3646 90.276 28.0521 89.8594 28.8125C89.4531 29.5625 88.9948 30.1771 88.4844 30.6562C87.6302 31.4896 86.5729 32.0521 85.3125 32.3438C84.6354 32.5104 83.8698 32.5938 83.0156 32.5938C80.9323 32.5938 79.1667 31.8385 77.7188 30.3281C76.2708 28.8073 75.5469 26.6823 75.5469 23.9531C75.5469 21.2656 76.276 19.0833 77.7344 17.4062C79.1927 15.7292 81.099 14.8906 83.4531 14.8906ZM87.9375 22.2969C87.8229 21.0781 87.5573 20.1042 87.1406 19.375C86.3698 18.0208 85.0833 17.3438 83.2812 17.3438C81.9896 17.3438 80.9062 17.8125 80.0312 18.75C79.1562 19.6771 78.6927 20.8594 78.6406 22.2969H87.9375ZM101.266 14.8906C102.453 14.8906 103.604 15.1719 104.719 15.7344C105.833 16.2865 106.682 17.0052 107.266 17.8906C107.828 18.7344 108.203 19.7188 108.391 20.8438C108.557 21.6146 108.641 22.8438 108.641 24.5312H96.375C96.4271 26.2292 96.8281 27.5938 97.5781 28.625C98.3281 29.6458 99.4896 30.1562 101.062 30.1562C102.531 30.1562 103.703 29.6719 104.578 28.7031C105.078 28.1406 105.432 27.4896 105.641 26.75H108.406C108.333 27.3646 108.089 28.0521 107.672 28.8125C107.266 29.5625 106.807 30.1771 106.297 30.6562C105.443 31.4896 104.385 32.0521 103.125 32.3438C102.448 32.5104 101.682 32.5938 100.828 32.5938C98.7448 32.5938 96.9792 31.8385 95.5312 30.3281C94.0833 28.8073 93.3594 26.6823 93.3594 23.9531C93.3594 21.2656 94.0885 19.0833 95.5469 17.4062C97.0052 15.7292 98.9115 14.8906 101.266 14.8906ZM105.75 22.2969C105.635 21.0781 105.37 20.1042 104.953 19.375C104.182 18.0208 102.896 17.3438 101.094 17.3438C99.8021 17.3438 98.7188 17.8125 97.8438 18.75C96.9688 19.6771 96.5052 20.8594 96.4531 22.2969H105.75ZM112.047 9.04688H114.75V22.375L121.969 15.2656H125.562L119.156 21.5312L125.922 32H122.328L117.109 23.5625L114.75 25.7188V32H112.047V9.04688ZM130.266 27.5469C130.266 28.3594 130.562 29 131.156 29.4688C131.75 29.9375 132.453 30.1719 133.266 30.1719C134.255 30.1719 135.214 29.9427 136.141 29.4844C137.703 28.724 138.484 27.4792 138.484 25.75V23.4844C138.141 23.7031 137.698 23.8854 137.156 24.0312C136.615 24.1771 136.083 24.2812 135.562 24.3438L133.859 24.5625C132.839 24.6979 132.073 24.9115 131.562 25.2031C130.698 25.6927 130.266 26.474 130.266 27.5469ZM137.078 21.8594C137.724 21.776 138.156 21.5052 138.375 21.0469C138.5 20.7969 138.562 20.4375 138.562 19.9688C138.562 19.0104 138.219 18.3177 137.531 17.8906C136.854 17.4531 135.88 17.2344 134.609 17.2344C133.141 17.2344 132.099 17.6302 131.484 18.4219C131.141 18.8594 130.917 19.5104 130.812 20.375H128.188C128.24 18.3125 128.906 16.8802 130.188 16.0781C131.479 15.2656 132.974 14.8594 134.672 14.8594C136.641 14.8594 138.24 15.2344 139.469 15.9844C140.688 16.7344 141.297 17.901 141.297 19.4844V29.125C141.297 29.4167 141.354 29.651 141.469 29.8281C141.594 30.0052 141.849 30.0938 142.234 30.0938C142.359 30.0938 142.5 30.0885 142.656 30.0781C142.812 30.0573 142.979 30.0312 143.156 30V32.0781C142.719 32.2031 142.385 32.2812 142.156 32.3125C141.927 32.3438 141.615 32.3594 141.219 32.3594C140.25 32.3594 139.547 32.0156 139.109 31.3281C138.88 30.9635 138.719 30.4479 138.625 29.7812C138.052 30.5312 137.229 31.1823 136.156 31.7344C135.083 32.2865 133.901 32.5625 132.609 32.5625C131.057 32.5625 129.786 32.0938 128.797 31.1562C127.818 30.2083 127.328 29.026 127.328 27.6094C127.328 26.0573 127.812 24.8542 128.781 24C129.75 23.1458 131.021 22.6198 132.594 22.4219L137.078 21.8594ZM146 9.04688H148.812V32H146V9.04688ZM153.047 15.3438H155.906V32H153.047V15.3438ZM153.047 9.04688H155.906V12.2344H153.047V9.04688ZM160.172 15.2656H162.844V17.6406C163.635 16.6615 164.474 15.9583 165.359 15.5312C166.245 15.1042 167.229 14.8906 168.312 14.8906C170.688 14.8906 172.292 15.7188 173.125 17.375C173.583 18.2812 173.812 19.5781 173.812 21.2656V32H170.953V21.4531C170.953 20.4323 170.802 19.6094 170.5 18.9844C170 17.9427 169.094 17.4219 167.781 17.4219C167.115 17.4219 166.568 17.4896 166.141 17.625C165.37 17.8542 164.693 18.3125 164.109 19C163.641 19.5521 163.333 20.125 163.188 20.7188C163.052 21.3021 162.984 22.1406 162.984 23.2344V32H160.172V15.2656ZM177.922 9.04688H180.625V22.375L187.844 15.2656H191.438L185.031 21.5312L191.797 32H188.203L182.984 23.5625L180.625 25.7188V32H177.922V9.04688Z" fill="white"/>
</svg>
